Coordinates
version=1
nRows=17
nColumns=33
inDegrees=yes

Units are S.I. units (second, meters, Newtons, ...)
Angles are in degrees.

endheader
time	ground_thorax_rot_x	ground_thorax_rot_y	ground_thorax_rot_z	ground_thorax_tx	ground_thorax_ty	ground_thorax_tz	clav_prot_r	clav_elev_r	scapula_abduction_r	scapula_elevation_r	scapula_upward_rot_r	scapula_winging_r	shoulder_elv_r	plane_of_elev_r	axial_rot_r	elbow_flexion_r	pro_sup_r	wrist_flex_r	wrist_dev_r	clav_prot_l	clav_elev_l	scapula_abduction_l	scapula_elevation_l	scapula_upward_rot_l	scapula_winging_l	shoulder_elv_l	plane_of_elev_l	axial_rot_l	elbow_flexion_l	pro_sup_l	wrist_flex_l	wrist_dev_l
      7.65000000	    -39.53115772	    -11.56494126	      8.67114332	   -109.31663507	    792.41617541	     -3.49453565	      2.74307819	    -45.00000000	     42.61767827	    -45.00000000	      1.49258016	  -2630.95143494	  -2456.48796486	     19.71370406	   -179.99999979	      4.09692309	    -62.17566782	     17.37538088	      9.27799253	     17.38452976	     39.23223453	    -38.86101339	    -44.59172928	    -45.00000000	   2956.09490045	  -5140.08025693	    136.52266655	   -179.99999979	    726.21563544	   -329.87067293	     11.57390542	    -20.55838009
      7.66000000	    -39.68688418	    -11.72697803	      8.93463925	   -115.01645526	    793.30814154	     -4.06405671	      2.91930558	    -45.00000000	     42.11642950	    -45.00000000	      0.24473578	  -2631.13473224	  -2456.42543206	     19.77759243	   -179.99999979	      4.17065979	    -61.70051419	     17.37073473	      9.35804729	     17.44903386	     39.42953411	    -38.19635734	    -45.00000000	    -45.00000000	   2955.75922019	  -5140.16046159	    136.92930639	   -179.99999979	    726.31872907	   -328.85379758	     11.51855118	    -20.74339120
      7.67000000	    -39.70853337	    -12.25339329	      9.76417991	   -120.64531851	    794.36947191	     -4.62290130	      3.18470762	    -45.00000000	     39.58343018	    -45.00000000	     -4.95095548	  -2629.19710249	  -2456.50234403	     19.90813013	   -179.99999979	      3.98202526	    -60.93501568	     17.74873428	      9.06920914	     16.81477067	     39.20485987	    -37.50140384	    -45.00000000	    -45.00000000	   2956.23311685	  -5140.25223557	    137.00291510	   -179.99999979	    726.19620640	   -327.89315313	     11.83207834	    -20.99648949
      7.68000000	    -39.74412392	    -11.88957241	      9.37717130	   -126.17319168	    795.59601515	     -5.16772878	      2.35111049	    -45.00000000	     39.92670534	    -45.00000000	     -3.87176269	  -2629.92168005	  -2456.06374922	     19.79998648	   -179.99999979	      4.11372066	    -61.19337538	     17.69479971	      9.22283903	     17.06054240	     39.17178033	    -37.26103616	    -45.00000000	    -45.00000000	   2956.28057936	  -5140.25323680	    137.15518607	   -179.99999979	    726.38087235	   -326.62788480	     11.56080273	    -21.11527109
      7.69000000	    -39.80014467	    -12.28756040	     10.04534905	   -131.57867122	    796.98151872	     -5.68966772	      3.32082829	    -45.00000000	     37.88584637	    -45.00000000	     -8.48614531	  -2628.51910921	  -2456.14975387	     20.16638334	   -179.99999979	      3.95402080	    -60.70287739	     18.07859400	      8.94220757	     16.64256556	     39.00069277	    -36.70633037	    -45.00000000	    -45.00000000	   2956.63444300	  -5140.29668884	    137.32225724	   -179.99999979	    726.24935321	   -325.63558748	     11.95339030	    -21.48751896
      7.70000000	    -39.87961700	    -11.97102256	      9.75256801	   -136.83305286	    798.51819236	     -6.18543780	      2.58715658	    -45.00000000	     38.03927208	    -45.00000000	     -7.74490071	  -2629.09836023	  -2455.82849410	     20.08301185	   -179.99999979	      4.12146413	    -60.90260032	     18.10401368	      9.05011514	     16.73060550	     38.91636843	    -36.45749289	    -45.00000000	    -45.00000000	   2956.68742704	  -5140.23271769	    137.55515428	   -179.99999979	    726.47024369	   -324.58188307	     11.74319390	    -21.63937036
      7.71000000	    -39.93876253	    -11.84807654	      9.66949245	   -141.91548189	    800.19960673	     -6.65048319	      2.54010444	    -45.00000000	     37.54887812	    -45.00000000	     -8.64783837	  -2628.95442456	  -2455.58772535	     20.17371418	   -179.99999979	      4.22958982	    -60.95103652	     18.26844219	      9.01555368	     16.50696820	     38.92286914	    -36.08824410	    -45.00000000	    -45.00000000	   2956.86331103	  -5140.20412930	    137.61086648	   -179.99999979	    726.49560891	   -323.62394078	     11.79652511	    -21.88860566
      7.72000000	    -40.09146336	    -11.30782637	      9.30739510	   -146.79836942	    802.01442308	     -7.08434723	      2.38254283	    -45.00000000	     36.81547934	    -45.00000000	     -9.02606707	  -2628.75988017	  -2455.35819194	     20.25949943	   -179.99999979	      4.49969813	    -61.11179230	     18.55716586	      8.94429687	     15.86911027	     39.29146884	    -36.01876131	    -45.00000000	    -45.00000000	   2957.32315505	  -5140.11188723	    137.24735301	   -179.99999979	    726.45590880	   -322.66618833	     12.02264977	    -22.25836190
      7.73000000	    -40.10544972	    -11.63826599	      9.69258819	   -151.46957882	    803.95206869	     -7.48360763	      2.95322252	    -45.00000000	     36.56388923	    -45.00000000	    -10.87609165	  -2628.79342224	  -2455.27717198	     20.46386062	   -179.99999979	      4.26135474	    -61.38718039	     18.64069454	      8.84159053	     16.27284351	     38.65097748	    -35.56535763	    -45.00000000	    -45.00000000	   2957.28049585	  -5140.13040480	    137.95426380	   -179.99999979	    726.67626550	   -321.79222440	     11.92503739	    -22.45066640
      7.74000000	    -40.18818332	    -11.46825195	      9.67233677	   -155.90308484	    805.99028461	     -7.84795313	      3.04121331	    -45.00000000	     36.10153284	    -45.00000000	    -11.78379540	  -2628.70821741	  -2455.14495669	     20.56074215	   -179.99999979	      4.30331221	    -61.98510016	     18.81666262	      8.76624636	     16.16231352	     38.56148980	    -35.31978710	    -45.00000000	    -45.00000000	   2957.51396599	  -5140.09593195	    138.06208203	   -179.99999979	    726.75982300	   -320.85641431	     11.95339213	    -22.72181226
      7.75000000	    -40.24289604	    -11.26027974	      9.55732942	   -160.09479220	    808.11075105	     -8.17490656	      2.97213464	    -45.00000000	     35.85203803	    -45.00000000	    -12.21423775	  -2628.71966531	  -2454.90964830	     20.61453884	   -179.99999979	      4.35977985	    -62.76156208	     18.92188313	      8.73477702	     15.97237044	     38.55073113	    -35.05794133	    -45.00000000	    -45.00000000	   2957.68594839	  -5140.03602896	    138.13047335	   -179.99999979	    726.83269501	   -320.00385827	     11.95369840	    -22.95063402
      7.76000000	    -40.31520290	    -10.84502998	      9.33918104	   -164.02813161	    810.27665350	     -8.46306028	      2.80172545	    -45.00000000	     35.66323466	    -45.00000000	    -12.11872027	  -2628.80071732	  -2454.63084032	     20.63403717	   -179.99999979	      4.58133633	    -63.57640662	     19.05140247	      8.72538128	     15.67172230	     38.69575655	    -34.88540466	    -45.00000000	    -45.00000000	   2957.93620574	  -5139.87256755	    137.96764617	   -179.99999979	    726.86106614	   -319.21342849	     11.98433948	    -23.18646783
      7.77000000	    -40.38991529	    -10.63969883	      9.20512434	   -167.70851534	    812.47125330	     -8.70874633	      2.86964419	    -45.00000000	     35.44154168	    -45.00000000	    -12.35342772	  -2628.87498770	  -2454.45464854	     20.73218922	   -179.99999979	      4.64646231	    -64.45395556	     19.16921263	      8.67316104	     15.56321939	     38.66781965	    -34.65360537	    -45.00000000	    -45.00000000	   2958.15977722	  -5139.82232273	    138.01306257	   -179.99999979	    726.92861033	   -318.49340026	     11.99201598	    -23.40394771
      7.78000000	    -40.38046693	    -10.43034130	      9.16186701	   -171.13717757	    814.67742087	     -8.91417018	      2.92367617	    -45.00000000	     35.39733006	    -45.00000000	    -12.59499826	  -2628.99045012	  -2454.23941683	     20.79246409	   -179.99999979	      4.65872849	    -65.42000189	     19.21847677	      8.64912016	     15.58319743	     38.56575735	    -34.47030800	    -45.00000000	    -45.00000000	   2958.22583731	  -5139.79287024	    138.22395453	   -179.99999979	    727.06163309	   -317.82591394	     11.94969092	    -23.58477771
      7.79000000	    -40.49406615	    -10.14855649	      9.05608268	   -174.32876058	    816.89316887	     -9.08310779	      2.89724777	    -45.00000000	     35.17762813	    -45.00000000	    -12.59988343	  -2629.08582575	  -2454.05654084	     20.80171289	   -179.99999979	      4.72284688	    -66.38566055	     19.33297253	      8.59092421	     15.33949457	     38.64480755	    -34.40288750	    -45.00000000	    -45.00000000	   2958.52612428	  -5139.71690055	    138.28692694	   -179.99999979	    727.19277130	   -317.22281521	     11.94747221	    -23.81357654
      7.80000000	    -40.46579374	     -9.95386198	      8.92497973	   -177.27871346	    819.09441725	     -9.22165607	      3.01182461	    -45.00000000	     35.24394772	    -45.00000000	    -12.92123613	  -2629.11683805	  -2453.91970105	     20.89962114	   -179.99999979	      4.71641974	    -67.45911703	     19.37655966	      8.58663320	     15.44599301	     38.46801115	    -34.20718930	    -45.00000000	    -45.00000000	   2958.55069237	  -5139.67399555	    138.41515144	   -179.99999979	    727.22395860	   -316.63465125	     11.90947594	    -23.93583792
      7.81000000	    -40.50762275	     -9.71472964	      8.79063751	   -179.98733326	    821.26566412	     -9.33662597	      3.05429189	    -45.00000000	     35.21364046	    -45.00000000	    -13.00289186	  -2629.20596581	  -2453.78718246	     20.95774818	   -179.99999979	      4.68592341	    -68.54828507	     19.44368609	      8.56984848	     15.39742946	     38.36894189	    -34.08778551	    -45.00000000	    -45.00000000	   2958.71187978	  -5139.58790591	    138.50979506	   -179.99999979	    727.33825807	   -316.09878564	     11.85886260	    -24.08419220
